<svg xmlns="http://www.w3.org/2000/svg" width="96" height="96" fill="none" viewBox="0 0 96 96" id="fax"><path stroke="#12182B" stroke-width="5" d="M29.4815 68H12C9.79086 68 8 66.2091 8 64V35C8 32.7909 9.79086 31 12 31H84C86.2091 31 88 32.7909 88 35V64C88 66.2091 86.2091 68 84 68H66.5185M28 13C28 11.3431 29.3431 10 31 10H65C66.6569 10 68 11.3431 68 13V31H28V13z"></path><path stroke="#12182B" stroke-linecap="round" stroke-width="5" d="M21 53H75M21 43H35"></path><path fill="#12182B" d="M78 43C78 44.6569 76.6569 46 75 46C73.3431 46 72 44.6569 72 43C72 41.3432 73.3431 40 75 40C76.6569 40 78 41.3432 78 43Z"></path><path stroke="#12182B" stroke-width="5" d="M65.25 55L68.5935 82.6397C68.8096 84.4264 67.4149 86 65.6152 86H30.3848C28.5851 86 27.1904 84.4264 27.4065 82.6397L30.75 55"></path><path stroke="#12182B" stroke-linecap="round" stroke-width="5" d="M39 62H57M38 70H58M36 77H60"></path></svg>