<svg xmlns="http://www.w3.org/2000/svg" width="128" height="128" fill="none" viewBox="0 0 128 128" id="location"><path stroke="#000" stroke-linecap="round" stroke-width="5" d="M46.5 89.8533C35.4768 91.0412 28 93.3484 28 96C28 99.866 43.8939 103 63.5 103C83.1061 103 99 99.866 99 96C99 93.269 91.0686 90.9033 79.5 89.7496"></path><path stroke="#000" stroke-width="5" d="M39.6333 68.4819C32.8548 57.3884 34.5941 43.0575 43.7869 33.8647V33.8647C54.7311 22.9205 72.5236 22.872 83.4678 33.8162V33.8162C92.6268 42.9753 94.3157 57.2178 87.5526 68.2648L84.7669 72.815L84.2073 73.5617C78.7448 80.8493 72.7586 87.7508 66.3178 94.1901V94.1901C64.769 95.7385 62.2548 95.742 60.706 94.1935V94.1935C54.2785 87.7676 48.3183 80.8908 42.8707 73.6156L42.3241 72.8857L39.6333 68.4819Z"></path><circle cx="63.5" cy="55.5" r="11" stroke="#000" stroke-width="5"></circle></svg>